<svg width="30" height="30" viewBox="0 0 30 30" fill="none" xmlns="http://www.w3.org/2000/svg">
<path fill-rule="evenodd" clip-rule="evenodd" d="M19.3257 17.8987L24.7057 23.2787C24.8948 23.468 25.001 23.7246 25.0009 23.9921C25.0008 24.2596 24.8945 24.5161 24.7052 24.7052C24.516 24.8943 24.2594 25.0005 23.9919 25.0004C23.7244 25.0003 23.4678 24.894 23.2787 24.7047L17.8987 19.3247C16.2905 20.5704 14.268 21.1566 12.2429 20.9641C10.2177 20.7716 8.34198 19.8148 6.99723 18.2884C5.65248 16.7619 4.93973 14.7806 5.004 12.7473C5.06826 10.714 5.9047 8.7816 7.34315 7.34315C8.7816 5.9047 10.714 5.06826 12.7473 5.004C14.7806 4.93973 16.7619 5.65248 18.2884 6.99723C19.8148 8.34198 20.7716 10.2177 20.9641 12.2429C21.1566 14.268 20.5704 16.2905 19.3247 17.8987H19.3257ZM13.0007 18.9997C14.592 18.9997 16.1182 18.3676 17.2434 17.2424C18.3686 16.1172 19.0007 14.591 19.0007 12.9997C19.0007 11.4084 18.3686 9.88232 17.2434 8.7571C16.1182 7.63189 14.592 6.99974 13.0007 6.99974C11.4094 6.99974 9.88332 7.63189 8.7581 8.7571C7.63289 9.88232 7.00074 11.4084 7.00074 12.9997C7.00074 14.591 7.63289 16.1172 8.7581 17.2424C9.88332 18.3676 11.4094 18.9997 13.0007 18.9997Z" fill="#769763"/>
</svg>
